<?xml version="1.0" encoding="utf-8"?>
<!-- Generator: Adobe Illustrator 21.1.0, SVG Export Plug-In . SVG Version: 6.00 Build 0)  -->
<svg version="1.1" id="レイヤー_1" xmlns="http://www.w3.org/2000/svg" xmlns:xlink="http://www.w3.org/1999/xlink" x="0px"
	 y="0px" viewBox="0 0 1024 512" style="enable-background:new 0 0 1024 512;" xml:space="preserve">
<style type="text/css">
	.st0{fill:#4B4B4B;}
	.st1{fill:#FFFFFF;}
</style>
<g id="_x31_0">
	<g>
		<path class="st0" d="M504.2,193.2c-1.8-7.3-4-14.5-6.5-21.5c-1.2-3.6-2.6-7.3-4-10.8c-2.9-7.2-6.2-14.4-9.9-21.6
			C439.1,52.4,350.9-0.9,253.5,0C156.1,1,68.9,56.1,26,143.8c-3.6,7.2-6.8,14.6-9.5,21.7c-1.4,3.6-2.6,7.3-3.8,10.8
			c-2.4,7.1-4.4,14.4-6.1,21.7C2,217.7-0.2,238,0,258.4c0.2,20.4,2.8,40.7,7.8,60.3c1.8,7.3,4,14.5,6.5,21.5c1.3,4,2.8,7.7,4.1,10.8
			c2.8,7.1,6.2,14.4,9.9,21.5C72.9,459.6,161.1,512.9,258.5,512c97.4-1,184.5-56.1,227.4-143.8c3.6-7.3,6.8-14.6,9.5-21.7
			c1.2-3.2,2.6-7,3.8-10.8c2.4-7.1,4.4-14.4,6.1-21.7c4.6-19.7,6.8-40,6.6-60.5C511.8,233,509.2,212.8,504.2,193.2z M438.3,144.8
			c0.9,1.5,1.8,3.1,2.7,4.7l0.2,0.4l-68.8,0.7c-1-2.7-2-5.3-3.1-7.9c-14.6-36.4-34.4-68.2-54.2-92
			C366.6,65.6,410.2,98.8,438.3,144.8z M362.3,254.9c0.2,20.5-2.2,40.3-6.5,59.2c-1,4.5-2.1,8.9-3.3,13.3L161,329.3
			c-1.3-4.3-2.5-8.7-3.6-13.2c-4.7-18.8-7.5-38.6-7.7-59.1c-0.2-20.4,2.2-40.3,6.5-59.2c1-4.5,2.1-8.9,3.4-13.3l191.4-1.9
			c1.3,4.4,2.5,8.7,3.6,13.2C359.3,214.6,362.1,234.5,362.3,254.9z M244.5,42.8c3.1-0.2,6.2-0.4,9.4-0.4c3.1,0,6.3,0.1,9.4,0.2
			c18.4,13.5,50.3,50.5,72.9,100.5c0.9,1.9,1.7,3.8,2.5,5.8c0.3,0.7,0.6,1.4,0.9,2.1l-123,1.2l-46.3,0.4c1.1-2.7,2.1-5.3,3.3-7.9
			C195.2,94.3,226.4,56.7,244.5,42.8z M71.5,148.4c27.3-46.6,70.2-80.6,121.3-96.5c-19.3,24.2-38.5,56.4-52.4,93.1
			c-1,2.6-2,5.3-2.9,8l-46.3,0.5l-22.6,0.1C69.6,151.9,70.5,150.1,71.5,148.4z M55.8,330.4c-1.8-4.7-3.5-9.6-4.9-14.6
			c-5.4-18.6-8.3-38-8.5-57.6s2.3-39.1,7.3-57.8c1.4-5.1,3-9.9,4.6-14.7l59-0.6l14.6-0.1c-1.1,4.4-2.1,8.8-3,13.2
			c-3.9,19.2-6,39-5.8,59.2c0.2,20.1,2.7,40,7,59.1c0.8,3.7,1.7,7.3,2.7,10.8c0.2,0.8,0.4,1.6,0.6,2.4L55.8,330.4z M73.6,367.2
			c-1-1.7-2-3.4-3-5.2l68.9-0.7c1,2.7,2,5.3,3.1,7.9c12,29.9,27.5,56.5,43.6,78.3c3.4,4.7,6.9,9.3,10.4,13.7
			C145.3,446.3,101.8,413.1,73.6,367.2z M267.5,469.2c-3.1,0.2-6.2,0.4-9.4,0.4c-3.1,0-6.3-0.1-9.4-0.2
			c-18.4-13.5-50.3-50.5-72.9-100.5c-1.2-2.6-2.3-5.3-3.5-7.9l122.8-1.2l46.5-0.4c-1.1,2.7-2.1,5.3-3.3,7.9
			C316.8,417.8,285.6,455.3,267.5,469.2z M440.5,363.6c-21.2,36.3-52,64.8-88.6,83.2c-10.4,5.2-21.2,9.6-32.4,13.1
			c19.3-24.2,38.3-56.2,52.2-92.8c1-2.6,2-5.3,2.9-8l46-0.5l22.8-0.1C442.4,360.1,441.5,361.9,440.5,363.6z M462.3,311.7
			c-1.4,5.1-2.9,9.9-4.6,14.7l-59.4,0.6l-14.2,0.1c1.1-4.4,2.1-8.8,3-13.2c3.9-19.2,6-39.1,5.8-59.2s-2.7-39.9-7-59
			c-1-4.4-2.1-8.8-3.2-13.2l73.5-0.7c1.8,4.7,3.5,9.6,4.9,14.6c5.4,18.6,8.3,37.9,8.5,57.6C469.8,273.5,467.3,292.9,462.3,311.7z"/>
	</g>
</g>
<g id="_x31_0のコピー">
	<g>
		<path class="st1" d="M1016.2,193.2c-1.8-7.3-4-14.5-6.5-21.5c-1.2-3.6-2.6-7.3-4-10.8c-2.9-7.2-6.2-14.4-9.9-21.6
			C951.1,52.4,862.9-0.9,765.5,0C668.1,1,580.9,56.1,538,143.8c-3.6,7.2-6.8,14.6-9.5,21.7c-1.4,3.6-2.6,7.3-3.8,10.8
			c-2.4,7.1-4.4,14.4-6.1,21.7c-4.6,19.7-6.8,40-6.6,60.4s2.8,40.7,7.8,60.3c1.8,7.3,4,14.5,6.5,21.5c1.3,4,2.8,7.7,4.1,10.8
			c2.8,7.1,6.2,14.4,9.9,21.5c44.6,86.9,132.8,140.2,230.3,139.3c97.4-1,184.5-56.1,227.4-143.8c3.6-7.3,6.8-14.6,9.5-21.7
			c1.2-3.2,2.6-7,3.8-10.8c2.4-7.1,4.4-14.4,6.1-21.7c4.6-19.7,6.8-40,6.6-60.5C1023.8,233,1021.2,212.8,1016.2,193.2z M950.3,144.8
			c0.9,1.5,1.8,3.1,2.7,4.7l0.2,0.4l-68.8,0.7c-1-2.7-2-5.3-3.1-7.9c-14.6-36.4-34.4-68.2-54.2-92
			C878.6,65.6,922.2,98.8,950.3,144.8z M874.3,254.9c0.2,20.5-2.2,40.3-6.5,59.2c-1,4.5-2.1,8.9-3.3,13.3L673,329.3
			c-1.3-4.3-2.5-8.7-3.6-13.2c-4.7-18.8-7.5-38.6-7.7-59.1c-0.2-20.4,2.2-40.3,6.5-59.2c1-4.5,2.1-8.9,3.4-13.3l191.4-1.9
			c1.3,4.4,2.5,8.7,3.6,13.2C871.3,214.6,874.1,234.5,874.3,254.9z M756.5,42.8c3.1-0.2,6.2-0.4,9.4-0.4c3.1,0,6.3,0.1,9.4,0.2
			c18.4,13.5,50.3,50.5,72.9,100.5c0.9,1.9,1.7,3.8,2.5,5.8c0.3,0.7,0.6,1.4,0.9,2.1l-123,1.2l-46.3,0.4c1.1-2.7,2.1-5.3,3.3-7.9
			C707.2,94.3,738.4,56.7,756.5,42.8z M583.5,148.4c27.3-46.6,70.2-80.6,121.3-96.5c-19.3,24.2-38.5,56.4-52.4,93.1
			c-1,2.6-2,5.3-2.9,8l-46.3,0.5l-22.6,0.1C581.6,151.9,582.5,150.1,583.5,148.4z M567.8,330.4c-1.8-4.7-3.5-9.6-4.9-14.6
			c-5.4-18.6-8.3-38-8.5-57.6s2.3-39.1,7.3-57.8c1.4-5.1,3-9.9,4.6-14.7l59-0.6l14.6-0.1c-1.1,4.4-2.1,8.8-3,13.2
			c-3.9,19.2-6,39-5.8,59.2c0.2,20.1,2.7,40,7,59.1c0.8,3.7,1.7,7.3,2.7,10.8c0.2,0.8,0.4,1.6,0.6,2.4L567.8,330.4z M585.6,367.2
			c-1-1.7-2-3.4-3-5.2l68.9-0.7c1,2.7,2,5.3,3.1,7.9c12,29.9,27.5,56.5,43.6,78.3c3.4,4.7,6.9,9.3,10.4,13.7
			C657.3,446.3,613.8,413.1,585.6,367.2z M779.5,469.2c-3.1,0.2-6.2,0.4-9.4,0.4c-3.1,0-6.3-0.1-9.4-0.2
			c-18.4-13.5-50.3-50.5-72.9-100.5c-1.2-2.6-2.3-5.3-3.5-7.9l122.8-1.2l46.5-0.4c-1.1,2.7-2.1,5.3-3.3,7.9
			C828.8,417.8,797.6,455.3,779.5,469.2z M952.5,363.6c-21.2,36.3-52,64.8-88.6,83.2c-10.4,5.2-21.2,9.6-32.4,13.1
			c19.3-24.2,38.3-56.2,52.2-92.8c1-2.6,2-5.3,2.9-8l46-0.5l22.8-0.1C954.4,360.1,953.5,361.9,952.5,363.6z M974.3,311.7
			c-1.4,5.1-2.9,9.9-4.6,14.7l-59.4,0.6l-14.2,0.1c1.1-4.4,2.1-8.8,3-13.2c3.9-19.2,6-39.1,5.8-59.2s-2.7-39.9-7-59
			c-1-4.4-2.1-8.8-3.2-13.2l73.5-0.7c1.8,4.7,3.5,9.6,4.9,14.6c5.4,18.6,8.3,37.9,8.5,57.6C981.8,273.5,979.3,292.9,974.3,311.7z"/>
	</g>
</g>
</svg>
